<svg xmlns="http://www.w3.org/2000/svg" width="500" height="500" viewBox="0 0 500 500"><rect x="0" y="0" width="500" height="500" fill="#000000"/><g transform="translate(116.49845955588593,250.25886906615796)translate(132.98397064208987,34)rotate(0)translate(-132.98397064208987,-34)" opacity="1"><path transform="translate(6,34.239999999999995)rotate(0)" d="M21.79-14.40L10.80-14.40L10.80 0L4.08 0L4.08-33.60L24.67-33.60L24.67-27.84L10.80-27.84L10.80-20.16L21.79-20.16L21.79-14.40ZM36.67 0L29.95 0L29.95-33.60L36.67-33.60L36.67 0ZM63.02-12.67L70.32 0L62.93 0L55.73-12.67L51.55-12.67L51.55 0L44.83 0L44.83-33.60L63.02-33.60L68.59-30.38L68.59-15.89L63.02-12.67ZM61.87-27.84L51.55-27.84L51.55-18.43L61.87-18.43L61.87-27.84ZM93.98-14.40L83.47-14.40L83.47-5.76L96.86-5.76L96.86 0L76.75 0L76.75-33.60L96.86-33.60L96.86-27.84L83.47-27.84L83.47-20.16L93.98-20.16L93.98-14.40ZM108.67-13.82L103.10-17.04L103.10-30.62L108.67-33.84L120.82-33.84L126.38-30.62L126.38-24.24L119.66-24.24L119.66-28.08L109.82-28.08L109.82-20.06L120.82-20.06L126.38-16.85L126.38-2.98L120.82 0.24L108.19 0.24L102.62-2.98L102.62-9.36L109.34-9.36L109.34-5.52L119.66-5.52L119.66-13.82L108.67-13.82ZM141.26 0L134.54 0L134.54-33.60L152.26-33.60L157.82-30.38L157.82-15.41L152.26-12.19L141.26-12.19L141.26 0ZM151.10-27.84L141.26-27.84L141.26-17.95L151.10-17.95L151.10-27.84ZM190.70-30.62L190.70-2.98L185.14 0.24L170.11 0.24L164.54-2.98L164.54-30.62L170.11-33.84L185.14-33.84L190.70-30.62ZM183.98-28.08L171.26-28.08L171.26-5.52L183.98-5.52L183.98-28.08ZM217.06-12.67L224.35 0L216.96 0L209.76-12.67L205.58-12.67L205.58 0L198.86 0L198.86-33.60L217.06-33.60L222.62-30.38L222.62-15.89L217.06-12.67ZM215.90-27.84L205.58-27.84L205.58-18.43L215.90-18.43L215.90-27.84ZM252.77-27.84L243.70-27.84L243.70 0L236.98 0L236.98-27.84L227.90-27.84L227.90-33.60L252.77-33.60L252.77-27.84Z" fill="#FFFFFF"/></g><g transform="translate(206.64621695949498,300.8749254604336)translate(40.437718105825255,17.112361101561856)rotate(0)translate(-40.437718105825255,-17.112361101561856)" opacity="1"><path transform="translate(6,17.2615169395077)rotate(0)" d="M11.42-7.21L6.15-7.21L5.70-2.89L12.41-2.89L12.12 0L2.04 0L3.80-16.83L13.87-16.83L13.56-13.94L6.85-13.94L6.47-10.10L11.73-10.10L11.42-7.21ZM26.76 0L17.65 0L19.40-16.83L22.77-16.83L21.30-2.89L27.05-2.89L26.76 0ZM35.17 0L31.81 0L33.56-16.83L36.93-16.83L35.17 0ZM54.12-13.94L49.57-13.94L48.13 0L44.77 0L46.21-13.94L41.67-13.94L41.98-16.83L54.43-16.83L54.12-13.94ZM67.10-7.21L61.84-7.21L61.38-2.89L68.09-2.89L67.80 0L57.73 0L59.48-16.83L69.55-16.83L69.24-13.94L62.53-13.94L62.15-10.10L67.41-10.10L67.10-7.21Z" fill="#FFFFFF"/></g><g transform="translate(87.48243019797576,120.83185490214328)translate(162.00000000000003,58)rotate(0)translate(-162.00000000000003,-58) scale(1.0006949270326617,1.0006949270326617)" opacity="1"><defs class="defs"/><path fill="#FFFFFF" d="M302.537,110.292c4.76-3.926,16.697-11.399,20.006-16.175c3.311-4.775-0.645-9.73-4.846-19.862&#10;&#9;c-4.197-10.133-11.816-18.821-21.193-28.381c-9.377-9.561-21.143-21.355-25.258-27.661c-4.113-6.306-7.732-8.987-7.732-8.987&#10;&#9;c-5.6-6.042-28.098-11.245-36.92-8.448c-3.416,1.083-4.316,5.552-6.322,10.153c-2.008,4.604-3.268,6.529-1.02,12.047&#10;&#9;c2.248,5.519,7.422,4.697,7.422,4.697c2.521,2.322,5.814-0.599,5.814-0.599c3.498,0.862,4.4-0.432,4.4-0.432&#10;&#9;c4.799,2.302,13.543-3.033,13.543-3.033c6.475,3.204,20.486,25.222,20.59,37.453c0.104,12.229,0.904,16.655,0.904,16.655&#10;&#9;c-32.074-11.214-44.57,7.591-44.57,7.591c-10.154-5.671-24.625-2.915-24.625-2.915c-7.521-6.355-19.708-11.045-19.708-11.045&#10;&#9;l-1.112-3.368l3.775-9.866c1.667-1.725,7.152-5.213,7.036-13.343s-5.146-6.224-5.146-6.224s1.931-10.344,2.027-16.041&#10;&#9;s-4.233-11.347-7.692-13.596c-3.461-2.249-5.183-6.633-18.246-6.633h-3.553c-13.064,0-14.785,4.384-18.244,6.633&#10;&#9;c-3.46,2.249-7.791,7.898-7.695,13.596c0.097,5.697,2.028,16.041,2.028,16.041s-5.03-1.906-5.147,6.224&#10;&#9;c-0.115,8.13,5.37,11.618,7.037,13.343l3.777,9.866l-1.114,3.368c0,0-12.187,4.689-19.708,11.045c0,0-14.472-2.756-24.625,2.915&#10;&#9;c0,0-12.497-18.805-44.572-7.591c0,0,0.803-4.426,0.906-16.655c0.104-12.231,14.114-34.249,20.589-37.453&#10;&#9;c0,0,8.745,5.335,13.544,3.033c0,0,0.902,1.294,4.398,0.432c0,0,3.294,2.921,5.815,0.599c0,0,5.176,0.821,7.423-4.697&#10;&#9;c2.248-5.518,0.987-7.443-1.019-12.047c-2.007-4.602-2.907-9.07-6.322-10.153C88.358-2.02,65.859,3.183,60.26,9.225&#10;&#9;c0,0-3.618,2.682-7.733,8.987c-4.114,6.306-15.879,18.101-25.256,27.661c-9.377,9.56-16.995,18.248-21.195,28.381&#10;&#9;C1.876,84.386-2.078,89.341,1.231,94.117c3.31,4.775,15.247,12.249,20.006,16.175c1.189,0.98,3.098,2.9,5.508,5.272h270.284&#10;&#9;C299.439,113.192,301.347,111.272,302.537,110.292z" class="color c1"/></g><g transform="translate(87.68618417889431,252.8169284389894)translate(57.21865038042798,57.32221613761655)rotate(0)translate(-57.21865038042798,-57.32221613761655) scale(0.5721865038042798,0.5721865038042798)" opacity="1"><defs class="defs"/><path fill="#FFFFFF" d="M0,100c0,0,0.781-0.034,2.245-0.099c1.467-0.056,3.615-0.177,6.349-0.254&#10;&#9;c5.469-0.155,13.281-0.482,22.656-0.688c4.688-0.098,9.766-0.202,15.137-0.313c5.371-0.078,11.035-0.16,16.894-0.245&#10;&#9;c5.86-0.047,11.914-0.149,18.067-0.157c6.152-0.021,12.402-0.042,18.653-0.063c6.249,0.021,12.499,0.041,18.651,0.063&#10;&#9;c6.152,0,12.207,0.108,18.066,0.154c11.719,0.127,22.656,0.322,32.03,0.558c9.375,0.203,17.188,0.535,22.655,0.69&#10;&#9;c2.734,0.078,4.883,0.199,6.35,0.256C199.219,99.966,200,100,200,100s-0.781,0.034-2.245,0.099&#10;&#9;c-1.467,0.057-3.614,0.178-6.349,0.256c-5.469,0.155-13.281,0.487-22.656,0.69c-9.374,0.234-20.313,0.432-32.029,0.559&#10;&#9;c-5.861,0.047-11.914,0.153-18.068,0.154c-6.151,0.021-12.401,0.041-18.65,0.063c-6.251-0.021-12.501-0.043-18.653-0.063&#10;&#9;c-6.153-0.007-12.207-0.108-18.067-0.157c-5.858-0.084-11.522-0.166-16.894-0.244c-5.371-0.111-10.449-0.217-15.137-0.313&#10;&#9;c-9.375-0.205-17.188-0.532-22.656-0.688c-2.733-0.077-4.882-0.198-6.349-0.254C0.781,100.034,0,100,0,100z" class="color c1"/></g><g transform="translate(294.6371543432521,251.76252774470902)translate(58.43733421919901,58.54310579413576)rotate(0)translate(-58.43733421919901,-58.54310579413576) scale(0.5843733421919901,0.5843733421919901)" opacity="1"><defs class="defs"/><path fill="#FFFFFF" d="M0,100c0,0,0.781-0.034,2.245-0.099c1.467-0.056,3.615-0.177,6.349-0.254&#10;&#9;c5.469-0.155,13.281-0.482,22.656-0.688c4.688-0.098,9.766-0.202,15.137-0.313c5.371-0.078,11.035-0.16,16.894-0.245&#10;&#9;c5.86-0.047,11.914-0.149,18.067-0.157c6.152-0.021,12.402-0.042,18.653-0.063c6.249,0.021,12.499,0.041,18.651,0.063&#10;&#9;c6.152,0,12.207,0.108,18.066,0.154c11.719,0.127,22.656,0.322,32.03,0.558c9.375,0.203,17.188,0.535,22.655,0.69&#10;&#9;c2.734,0.078,4.883,0.199,6.35,0.256C199.219,99.966,200,100,200,100s-0.781,0.034-2.245,0.099&#10;&#9;c-1.467,0.057-3.614,0.178-6.349,0.256c-5.469,0.155-13.281,0.487-22.656,0.69c-9.374,0.234-20.313,0.432-32.029,0.559&#10;&#9;c-5.861,0.047-11.914,0.153-18.068,0.154c-6.151,0.021-12.401,0.041-18.65,0.063c-6.251-0.021-12.501-0.043-18.653-0.063&#10;&#9;c-6.153-0.007-12.207-0.108-18.067-0.157c-5.858-0.084-11.522-0.166-16.894-0.244c-5.371-0.111-10.449-0.217-15.137-0.313&#10;&#9;c-9.375-0.205-17.188-0.532-22.656-0.688c-2.733-0.077-4.882-0.198-6.349-0.254C0.781,100.034,0,100,0,100z" class="color c1"/></g></svg>